<svg width="35" height="44" viewBox="0 0 35 44" fill="none" xmlns="http://www.w3.org/2000/svg">
<path d="M28.3666 15.3298V10.9499C28.3666 4.81795 23.5661 0 17.4563 0C11.3466 0 6.54613 4.81795 6.54613 10.9499V15.3298C2.83666 15.3298 0 18.1768 0 21.8998V37.2296C0 40.9526 2.83666 43.7996 6.54613 43.7996H28.3666C32.076 43.7996 34.9127 40.9526 34.9127 37.2296V21.8998C34.9127 18.1768 32.076 15.3298 28.3666 15.3298ZM10.9102 10.9499C10.9102 7.22693 13.7469 4.37996 17.4563 4.37996C21.1658 4.37996 24.0025 7.22693 24.0025 10.9499V15.3298H10.9102V10.9499ZM19.8566 29.5647L19.6384 29.7837V32.8497C19.6384 34.1637 18.7656 35.0396 17.4563 35.0396C16.1471 35.0396 15.2743 34.1637 15.2743 32.8497V29.7837C13.9651 28.4697 13.7469 26.4987 15.0561 25.1847C16.3653 23.8708 18.3292 23.6518 19.6384 24.9657C20.9476 26.0607 21.1658 28.2507 19.8566 29.5647Z" fill="#484848"/>
</svg>
