<svg width="35" height="35" viewBox="0 0 35 35" fill="none" xmlns="http://www.w3.org/2000/svg">
<path d="M11.3203 14.9297C9.60677 13.2161 8.75 11.1562 8.75 8.75C8.75 6.34375 9.60677 4.28385 11.3203 2.57031C13.0339 0.856771 15.0937 0 17.5 0C19.9062 0 21.9661 0.856771 23.6797 2.57031C25.3932 4.28385 26.25 6.34375 26.25 8.75C26.25 11.1562 25.3932 13.2161 23.6797 14.9297C21.9661 16.6432 19.9062 17.5 17.5 17.5C15.0937 17.5 13.0339 16.6432 11.3203 14.9297ZM0 35V28.875C0 27.6354 0.319375 26.4965 0.958125 25.4581C1.59688 24.4198 2.44417 23.6265 3.5 23.0781C5.76042 21.9479 8.05729 21.1006 10.3906 20.5362C12.724 19.9719 15.0937 19.689 17.5 19.6875C19.9062 19.686 22.276 19.969 24.6094 20.5362C26.9427 21.1035 29.2396 21.9508 31.5 23.0781C32.5573 23.625 33.4053 24.4183 34.0441 25.4581C34.6828 26.4979 35.0015 27.6369 35 28.875V35H0Z" fill="#484848"/>
</svg>
