<svg width="103" height="103" viewBox="0 0 103 103" fill="none" xmlns="http://www.w3.org/2000/svg">
<circle cx="51.5" cy="51.5" r="48" fill="white" stroke="#00CCCC" stroke-width="7"/>
<path d="M71.3737 52.9707C73.6365 52.9707 75.8067 53.8697 77.4067 55.4697C79.0068 57.0698 79.9057 59.24 79.9057 61.5028V64.3468C79.9057 75.5579 69.326 87.0989 51.4656 87.0989C33.6051 87.0989 23.0254 75.5579 23.0254 64.3468V61.5028C23.0254 59.24 23.9243 57.0698 25.5244 55.4697C27.1244 53.8697 29.2946 52.9707 31.5574 52.9707H71.3737ZM51.4656 15.9985C55.6141 15.9985 59.5927 17.6465 62.5262 20.58C65.4596 23.5135 67.1076 27.4921 67.1076 31.6406C67.1076 35.7892 65.4596 39.7678 62.5262 42.7013C59.5927 45.6347 55.6141 47.2827 51.4656 47.2827C47.317 47.2827 43.3384 45.6347 40.4049 42.7013C37.4715 39.7678 35.8235 35.7892 35.8235 31.6406C35.8235 27.4921 37.4715 23.5135 40.4049 20.58C43.3384 17.6465 47.317 15.9985 51.4656 15.9985Z" fill="#00CCCC"/>
</svg>
